<svg xmlns="http://www.w3.org/2000/svg" viewBox="0 0 31.22 26.48"><defs><style>.cls-1{fill-rule:evenodd; fill: #616161;}</style></defs><title>Recurso 16</title><g id="Capa_2" data-name="Capa 2"><g id="Layer_1" data-name="Layer 1"><path class="cls-1" d="M8,14.79c-.08.4-.45,1.89-1.73,1.95V15.49a.74.74,0,0,1,.72-.7Zm-1.3-.48H9.93a.94.94,0,0,1,.94.94v2.2a.94.94,0,0,1-.94.94H6.67a.94.94,0,0,1-.94-.94v-2.2a.94.94,0,0,1,.94-.94m2,.48c.08.4.45,1.89,1.73,1.95V15.49a.73.73,0,0,0-.72-.7Z"/><path class="cls-1" d="M17.56,20.05a.48.48,0,1,1,1,0,.48.48,0,1,1-1,0"/><path class="cls-1" d="M15.61,26.12c2.57,0,4.49-.52,4.49-1.2s-1.62-1.2-4.49-1.2-4.49.52-4.49,1.2,1.93,1.2,4.49,1.2m0-12.22c2.77,0,4.28,4.73,2.55,9.75a15.05,15.05,0,0,0-2.55-.2,15.05,15.05,0,0,0-2.55.2c-1.73-5-.21-9.75,2.55-9.75m0-13c3.27,0,11.11,5,13.53,7.67,1.64,1.8.61,3.11-2,3-4.2-.27-7.78-.54-11.54-.59s-7.33.32-11.54.59c-2.61.16-3.64-1.15-2-3C4.49,5.88,12.34.86,15.62.86M23,2.93c-.35-1-.37-1.33.54-1.32H25.5c1.14,0,.65.7.43,1.83-.14.73-.11.94-.19,1.43C24.63,4.09,24.1,3.56,23,2.93m-7.41,8.84c-3,0-5.71.25-10.09.48a10.25,10.25,0,0,1-1.79,5.57c-2.13,3.38.49,8.61,7.06,7.5a1.11,1.11,0,0,1-.18-.09c-2.13-1-2.52-2.39-1.1-3,1.08-.44,2.46-.9,2.46-.9-.72-3.5.42-8.27,3.64-8.29s4.36,4.79,3.64,8.29c0,0,1.38.46,2.46.9,1.42.58,1,1.95-1.09,3l-.19.09c6.57,1.11,9.19-4.12,7.05-7.5a10.18,10.18,0,0,1-1.77-5.57c-4.39-.23-7.08-.44-10.1-.48M15.61,0c1.33,0,3.83,1,6.66,2.6l-.09-.33C22,1.63,22.13.9,23.26.9h2.46c1.53,0,1.32.82,1,2a14.87,14.87,0,0,0-.38,2.37s2,1.47,3.1,2.4c3.49,2.94,1.22,4.87-2.11,4.7l-1-.05a8.45,8.45,0,0,0,1.84,4.84c3.87,4.62-1.25,10.42-8.47,8.79a15,15,0,0,1-8.27,0C4.25,27.53-.87,21.73,3,17.11a8.45,8.45,0,0,0,1.84-4.84l-1,.05c-3.33.17-5.6-1.78-2.11-4.73,1.11-.93,3.1-2.37,3.1-2.37A47.63,47.63,0,0,1,9,2.6C11.79,1,14.28,0,15.61,0"/><path class="cls-1" d="M22.6,14.79c-.08.4-.45,1.89-1.74,1.95V15.49a.74.74,0,0,1,.72-.7Zm-1.31-.48h3.27a.94.94,0,0,1,.94.94v2.2a.94.94,0,0,1-.94.94H21.29a.94.94,0,0,1-.93-.94v-2.2a.94.94,0,0,1,.93-.94m2,.48c.08.4.45,1.89,1.73,1.95V15.49a.73.73,0,0,0-.72-.7Z"/></g></g></svg>